# xmcd
#
# Track frame offsets:
#	150
#	18649
#	31608
#	52708
#	71622
#	92051
#	109244
#	130303
#	145252
#	160722
#	176928
#	194844
#	212375
#	230009
#
# Disc length: 3290 seconds
#
# Revision: 1
# Processed by: cddbd v1.5.2PL0 Copyright (c) Steve Scherf et al.
# Submitted via: audiograbber 1.83.01
#
DISCID=c30cd80e
DTITLE=Clouseau - Clouseau
DYEAR=2013
DGENRE=Pop
TTITLE0=Ziel
TTITLE1=88
TTITLE2=Vliegtuig
TTITLE3=Verdwijnen met jou
TTITLE4=Zonde van de tijd
TTITLE5=Als we dood zijn
TTITLE6=Kan het niet alleen
TTITLE7=Kom maar op
TTITLE8=Hij ziet je niet (zoals ik je zie)
TTITLE9=Wat heb ik gedaan
TTITLE10=Laatste keer
TTITLE11=Vrijer dan de wind
TTITLE12=Je hebt een ander
TTITLE13=Onvoorwaardelijk wij
EXTD=
EXTT0=
EXTT1=
EXTT2=
EXTT3=
EXTT4=
EXTT5=
EXTT6=
EXTT7=
EXTT8=
EXTT9=
EXTT10=
EXTT11=
EXTT12=
EXTT13=
PLAYORDER=
